<?xml version="1.0" encoding="utf-8" ?>
<svg xmlns="http://www.w3.org/2000/svg" xmlns:xlink="http://www.w3.org/1999/xlink" width="1000" height="1000">
	<path fill="#FEC236" d="M743.526 198.938C761.251 197.576 780.207 203.978 793.979 215.054C809.655 227.661 820.594 246.407 822.655 266.502Q822.758 267.546 822.835 268.592Q822.911 269.638 822.963 270.685Q823.014 271.733 823.04 272.781Q823.066 273.83 823.067 274.879Q823.067 275.927 823.042 276.976Q823.016 278.024 822.965 279.072Q822.915 280.119 822.838 281.165Q822.762 282.211 822.66 283.255Q822.558 284.299 822.431 285.34Q822.304 286.381 822.151 287.419Q821.999 288.456 821.821 289.49Q821.643 290.524 821.44 291.553Q821.237 292.582 821.009 293.605Q820.781 294.629 820.528 295.647Q820.275 296.665 819.997 297.676Q819.719 298.687 819.417 299.692Q819.115 300.696 818.788 301.693Q818.461 302.689 818.11 303.677Q817.759 304.666 817.384 305.645Q817.01 306.625 816.611 307.595Q816.212 308.565 815.79 309.525Q815.368 310.485 814.922 311.435Q814.477 312.384 814.008 313.322Q813.54 314.261 813.048 315.187Q812.557 316.114 812.043 317.028Q811.529 317.943 810.994 318.844Q810.458 319.746 809.9 320.634Q809.342 321.522 808.763 322.396Q808.184 323.271 807.583 324.131Q806.983 324.991 806.362 325.836Q805.741 326.681 805.099 327.511Q804.458 328.34 803.796 329.154C791.915 343.601 769.309 356.885 750.61 358.758C730.483 359.166 712.989 355.629 697.161 342.435C680.404 328.466 670.881 306.822 669.121 285.318Q669.039 284.305 668.983 283.291Q668.927 282.277 668.895 281.261Q668.864 280.246 668.857 279.23Q668.851 278.214 668.869 277.198Q668.888 276.182 668.932 275.167Q668.975 274.152 669.044 273.139Q669.112 272.125 669.206 271.113Q669.299 270.102 669.418 269.093Q669.536 268.084 669.679 267.078Q669.822 266.072 669.99 265.07Q670.158 264.068 670.351 263.071Q670.543 262.073 670.761 261.081Q670.978 260.088 671.219 259.102Q671.461 258.115 671.726 257.134Q671.992 256.154 672.282 255.18Q672.571 254.206 672.885 253.24Q673.199 252.273 673.536 251.315Q673.873 250.357 674.234 249.407Q674.595 248.458 674.979 247.517Q675.363 246.577 675.771 245.646Q676.178 244.715 676.608 243.795Q677.038 242.874 677.49 241.964Q677.943 241.055 678.418 240.157Q678.892 239.259 679.389 238.372Q679.886 237.486 680.404 236.612Q680.923 235.739 681.463 234.878Q682.002 234.017 682.563 233.17Q683.124 232.323 683.706 231.49Q684.287 230.657 684.889 229.839Q685.491 229.02 686.113 228.217Q686.734 227.413 687.376 226.626Q688.017 225.838 688.678 225.066C702.57 208.975 722.613 200.523 743.526 198.938Z"/>
	<path fill="#EA2E29" d="M684.284 387.287C706.674 387.378 729.049 388.373 751.444 388.359Q765.257 388.364 779.069 388.168C786.452 388.006 803.75 386.371 810.108 388.124C812.335 390.9 812.421 402.132 812.605 406.294C814.226 442.86 813.559 479.76 813.011 516.343L812.044 595.964Q811.635 621.679 810.821 647.384C810.435 663.1 810.949 679.492 807.208 694.864C801.061 720.128 788.852 740.88 771.422 759.954C748.801 782.978 717.151 797.342 685.198 800.741L684.741 483.562C684.671 454.279 682.468 424.995 682.659 395.749C682.68 392.524 683.054 390.31 684.284 387.287Z"/>
	<path fill="#1B86E6" d="M287.685 796.831C280.085 768.785 276.079 741.607 277.621 712.498C280.229 663.283 304.753 615.746 341.252 583.091C385.364 543.625 420.474 537.325 477.437 536.428Q511.24 535.721 545.006 537.466C578.937 542.265 605.167 553.769 632.537 574.285C642.117 581.466 650.886 590.005 662.095 594.655L662.564 796.755L548.313 797.292Q546.992 731.49 547.29 665.676C514.193 665.574 473.598 659.091 442.15 670.511Q440.481 671.101 438.845 671.774Q437.208 672.447 435.607 673.201Q434.006 673.956 432.445 674.789Q430.884 675.623 429.366 676.534Q427.849 677.445 426.379 678.431Q424.91 679.417 423.491 680.476Q422.073 681.534 420.71 682.663Q419.346 683.791 418.041 684.987Q416.736 686.182 415.493 687.441Q414.249 688.701 413.071 690.021Q411.892 691.341 410.781 692.719Q409.67 694.097 408.63 695.528Q407.59 696.96 406.622 698.442Q405.655 699.924 404.764 701.453Q403.872 702.982 403.058 704.554Q402.245 706.125 401.511 707.736C388.151 736.585 395.624 768.833 406.117 797.257Q368.856 797.889 331.592 797.499C317.036 797.466 302.182 798.059 287.685 796.831Z"/>
	<path fill="#20B773" d="M301.563 431.036C275.548 433.825 248.973 432.274 222.85 432.2C214.205 432.176 184.976 432.985 177.995 430.826C175.711 427.26 177.559 419.899 178.421 415.966Q179.074 412.93 179.802 409.911Q180.531 406.892 181.333 403.892Q182.136 400.892 183.013 397.913Q183.889 394.933 184.84 391.977Q185.79 389.02 186.813 386.088Q187.836 383.155 188.931 380.249Q190.027 377.343 191.193 374.465Q192.36 371.587 193.598 368.739Q194.836 365.891 196.144 363.074Q197.452 360.257 198.829 357.474Q200.206 354.69 201.652 351.942Q203.098 349.193 204.611 346.481Q206.124 343.769 207.704 341.096Q209.284 338.422 210.93 335.788Q212.575 333.155 214.286 330.562Q215.996 327.97 217.77 325.421Q219.544 322.872 221.38 320.368Q223.217 317.863 225.115 315.405Q227.013 312.947 228.971 310.536Q230.929 308.126 232.946 305.765Q234.963 303.404 237.039 301.093Q239.114 298.782 241.245 296.524Q243.377 294.265 245.564 292.06Q247.751 289.855 249.991 287.705Q252.232 285.555 254.525 283.461Q256.819 281.366 259.163 279.33Q261.508 277.293 263.902 275.315Q266.296 273.337 268.738 271.419Q271.18 269.5 273.67 267.643Q276.159 265.786 278.693 263.991Q281.227 262.196 283.805 260.464Q286.383 258.732 289.003 257.065C344.89 221.672 416.092 212.984 480.081 227.375Q482.987 228.007 485.878 228.71Q488.768 229.413 491.639 230.188Q494.511 230.962 497.363 231.807Q500.215 232.652 503.045 233.568Q505.875 234.483 508.681 235.468Q511.488 236.453 514.269 237.507Q517.051 238.561 519.805 239.683Q522.56 240.806 525.285 241.996Q528.011 243.186 530.707 244.443Q533.403 245.7 536.066 247.024Q538.73 248.347 541.36 249.736Q543.991 251.125 546.586 252.578Q549.181 254.031 551.739 255.548Q554.298 257.065 556.818 258.645Q559.338 260.224 561.819 261.866Q564.299 263.508 566.738 265.21Q569.177 266.912 571.574 268.674Q573.97 270.436 576.322 272.257Q578.674 274.078 580.98 275.956Q583.286 277.834 585.546 279.769Q587.805 281.703 590.016 283.693Q592.226 285.683 594.387 287.727Q596.548 289.771 598.658 291.868Q600.768 293.964 602.825 296.112Q604.882 298.26 606.886 300.459Q608.889 302.657 610.838 304.904Q612.787 307.151 614.679 309.446Q616.572 311.741 618.407 314.081Q620.242 316.422 622.019 318.807Q623.796 321.192 625.514 323.621Q627.231 326.049 628.888 328.52Q630.545 330.99 632.14 333.5C652.289 365.418 662.033 401.763 663.158 439.323C663.702 457.503 662.63 475.826 662.51 494.027L662.095 594.655C650.886 590.005 642.117 581.466 632.537 574.285C605.167 553.769 578.937 542.265 545.006 537.466L545.17 536.694C545.71 534.237 546.93 531.874 547.233 529.376C548.346 520.23 546.432 509.892 546.175 500.621C545.214 465.978 545.998 437.739 526.591 406.66Q525.809 405.392 524.997 404.145Q524.184 402.897 523.34 401.67Q522.496 400.443 521.622 399.238Q520.748 398.032 519.845 396.849Q518.941 395.665 518.008 394.505Q517.075 393.344 516.113 392.207Q515.151 391.07 514.162 389.958Q513.172 388.845 512.155 387.758Q511.138 386.67 510.094 385.608Q509.05 384.546 507.98 383.511Q506.91 382.475 505.815 381.466Q504.719 380.458 503.599 379.477Q502.478 378.496 501.334 377.543Q500.19 376.591 499.022 375.667Q497.854 374.743 496.664 373.848Q495.473 372.954 494.261 372.089Q493.048 371.225 491.815 370.391Q490.581 369.556 489.327 368.753Q488.073 367.95 486.8 367.179Q485.526 366.407 484.234 365.668Q482.941 364.928 481.631 364.221Q480.32 363.514 478.993 362.839Q477.665 362.165 476.321 361.524Q474.977 360.883 473.617 360.276Q472.258 359.669 470.883 359.095Q469.509 358.522 468.121 357.984Q466.733 357.445 465.332 356.941Q463.93 356.437 462.517 355.968Q461.104 355.499 459.679 355.065Q458.255 354.632 456.82 354.234Q455.385 353.836 453.94 353.474Q452.496 353.112 451.043 352.786C418.336 345.335 380.995 348.947 352.26 367.059C335.516 377.612 322.397 391.815 313.397 409.436C309.681 416.712 306.457 424.454 301.563 431.036Z"/>
</svg>
